<svg viewBox="-5.44 -5.44 42.88 42.88" fill="none" xmlns="http://www.w3.org/2000/svg" stroke="#ffffff" stroke-width="0.768" transform="matrix(1, 0, 0, 1, 0, 0)"><g id="SVGRepo_bgCarrier" stroke-width="0" transform="translate(0,0), scale(1)"><rect x="-5.44" y="-5.44" width="42.88" height="42.88" rx="21.44" fill="#4e5355" strokewidth="0"></rect></g><g id="SVGRepo_tracerCarrier" stroke-linecap="round" stroke-linejoin="round" stroke="#CCCCCC" stroke-width="0.192"> <path fill-rule="evenodd" clip-rule="evenodd" d="M16 16C16 13.7909 17.7909 12 20 12C22.2091 12 24 13.7909 24 16C24 18.2091 22.2091 20 20 20C17.7909 20 16 18.2091 16 16Z" fill="#1ABCFE"></path> <path fill-rule="evenodd" clip-rule="evenodd" d="M8 24C8 21.7909 9.79086 20 12 20H16V24C16 26.2091 14.2091 28 12 28C9.79086 28 8 26.2091 8 24Z" fill="#0ACF83"></path> <path fill-rule="evenodd" clip-rule="evenodd" d="M16 4V12H20C22.2091 12 24 10.2091 24 8C24 5.79086 22.2091 4 20 4H16Z" fill="#FF7262"></path> <path fill-rule="evenodd" clip-rule="evenodd" d="M8 8C8 10.2091 9.79086 12 12 12H16V4H12C9.79086 4 8 5.79086 8 8Z" fill="#F24E1E"></path> <path fill-rule="evenodd" clip-rule="evenodd" d="M8 16C8 18.2091 9.79086 20 12 20H16V12H12C9.79086 12 8 13.7909 8 16Z" fill="#A259FF"></path> </g><g id="SVGRepo_iconCarrier"> <path fill-rule="evenodd" clip-rule="evenodd" d="M16 16C16 13.7909 17.7909 12 20 12C22.2091 12 24 13.7909 24 16C24 18.2091 22.2091 20 20 20C17.7909 20 16 18.2091 16 16Z" fill="#1ABCFE"></path> <path fill-rule="evenodd" clip-rule="evenodd" d="M8 24C8 21.7909 9.79086 20 12 20H16V24C16 26.2091 14.2091 28 12 28C9.79086 28 8 26.2091 8 24Z" fill="#0ACF83"></path> <path fill-rule="evenodd" clip-rule="evenodd" d="M16 4V12H20C22.2091 12 24 10.2091 24 8C24 5.79086 22.2091 4 20 4H16Z" fill="#FF7262"></path> <path fill-rule="evenodd" clip-rule="evenodd" d="M8 8C8 10.2091 9.79086 12 12 12H16V4H12C9.79086 4 8 5.79086 8 8Z" fill="#F24E1E"></path> <path fill-rule="evenodd" clip-rule="evenodd" d="M8 16C8 18.2091 9.79086 20 12 20H16V12H12C9.79086 12 8 13.7909 8 16Z" fill="#A259FF"></path> </g></svg>